# xmcd CD database file
#
# Track frame offsets:
#	150
#	13441
#	28669
#	43823
#	56487
#	72984
#	84510
#	96807
#	109347
#	120057
#	129757
#	152028
#	164918
#
# Disc length: 2566 seconds
#
# Revision: 0
# Processed by: cddbd v1.5.1PL0 Copyright (c) Steve Scherf et al.
# Submitted via: CDex 1.51
#
DISCID=ab0a040d
DTITLE=Chet and Johnny O'Connell -  - The Journey
DYEAR=2005
DGENRE=Country
TTITLE0=Chet and Johnny O'Connell - The Door Is Always Open
TTITLE1=Chet and Johnny O'Connell - If I Could Write A Love Song
TTITLE2=Chet and Johnny O'Connell - Between Father And Son
TTITLE3=Chet and Johnny O'Connell - Louisanna Man
TTITLE4=Chet and Johnny O'Connell - Johnney's Guitar Song
TTITLE5=Chet and Johnny O'Connell - Crazy Arms
TTITLE6=Chet and Johnny O'Connell - Tellin' My Troubles To My Old Guitar
TTITLE7=Chet and Johnny O'Connell - I Would Like To See You Again
TTITLE8=Chet and Johnny O'Connell - My Buckets Got A Hole In It
TTITLE9=Chet and Johnny O'Connell - Cajun Guitar
TTITLE10=Chet and Johnny O'Connell - Country Music S.O.B.
TTITLE11=Chet and Johnny O'Connell - The Old Rugged Cross
TTITLE12=Chet and Johnny O'Connell - Loving Her Was Easier
EXTD=YEAR: 2005
EXTT0=
EXTT1=
EXTT2=
EXTT3=
EXTT4=
EXTT5=
EXTT6=
EXTT7=
EXTT8=
EXTT9=
EXTT10=
EXTT11=
EXTT12=
PLAYORDER=
